PathFileType	4	(X/Y/Z)	 s11c0401.trc
DataRate	CameraRate	NumFrames	NumMarkers	Units	OrigDataRate	OrigDataStartFrame	OrigNumFrames
200	200	4	48	mm	200	1501	2000
Frame#	Time	racr			lacr			c7			jug			rlel			rdr			llel			ldr			s2			lic			ric			lasi			rasi			rpsi			lpsi			rgt			lgt			rth1			rth2			rth3			rth4			rlfc			rmfc			rsh1			rsh2			rsh3			rsh4			rlmal			rcal			rtoe			rmt5			lth1			lth2			lth4			lth3			llfc			lmfc			llmal			lcal			lmt5			lsh1			lsh2			lsh3			lsh4			ltoe			SBIKE			LBIKE			RBIKE			
		X1	Y1	Z1	X2	Y2	Z2	X3	Y3	Z3	X4	Y4	Z4	X5	Y5	Z5	X6	Y6	Z6	X7	Y7	Z7	X8	Y8	Z8	X9	Y9	Z9	X10	Y10	Z10	X11	Y11	Z11	X12	Y12	Z12	X13	Y13	Z13	X14	Y14	Z14	X15	Y15	Z15	X16	Y16	Z16	X17	Y17	Z17	X18	Y18	Z18	X19	Y19	Z19	X20	Y20	Z20	X21	Y21	Z21	X22	Y22	Z22	X23	Y23	Z23	X24	Y24	Z24	X25	Y25	Z25	X26	Y26	Z26	X27	Y27	Z27	X28	Y28	Z28	X29	Y29	Z29	X30	Y30	Z30	X31	Y31	Z31	X32	Y32	Z32	X33	Y33	Z33	X34	Y34	Z34	X35	Y35	Z35	X36	Y36	Z36	X37	Y37	Z37	X38	Y38	Z38	X39	Y39	Z39	X40	Y40	Z40	X41	Y41	Z41	X42	Y42	Z42	X43	Y43	Z43	X44	Y44	Z44	X45	Y45	Z45	X46	Y46	Z46	X47	Y47	Z47	X48	Y48	Z48	
1501	7.5050	794.057004	1310.421668	-44.499552	762.863955	1320.453074	-370.955104	764.706087	1404.973731	-201.896639	698.272021	1228.689386	-204.753498	602.068971	1113.971382	75.371612	762.742427	949.432986	-40.298894	595.006247	1170.329926	-591.344728	769.923632	954.640766	-468.729622	141.188465	1331.837015	-212.024849	353.193021	1299.550063	-416.328989	351.935989	1262.965757	-15.456996	359.066824	1214.423637	-388.517336	354.488274	1196.383038	-62.111149	205.940264	1391.365289	-154.801648	198.072350	1391.815569	-254.592853	278.119768	1146.326212	-9.619920	235.074607	1192.052393	-430.607972	358.438057	1026.604474	-13.157037	423.167775	969.777576	-36.031822	449.169702	887.592087	-52.516199	450.190277	990.442945	-50.111042	495.682446	793.399983	-75.781427	478.026757	780.670740	-205.023987	377.416721	681.093806	-61.152011	327.636164	610.732123	-79.009747	249.308038	571.595827	-78.406530	344.739525	595.484469	-111.656979	138.910325	501.405375	-87.963310	99.609516	551.267311	-137.251893	191.837935	278.665354	-141.759041	136.169609	328.045835	-72.579635	326.638918	1062.186181	-442.637358	389.598413	1004.676390	-435.441927	423.083260	1023.325662	-426.933887	415.945579	918.916464	-430.425464	478.104005	788.932271	-404.006258	482.469104	774.130375	-278.722824	320.949477	387.291701	-401.770923	254.895386	359.439124	-372.140089	444.659229	271.381309	-438.051182	429.661462	670.588481	-427.575347	425.857022	585.687284	-416.130238	381.031236	509.351478	-416.599559	455.125947	578.555485	-391.399001	541.604767	273.630486	-367.922571	-203.878301	960.141749	-262.795409	1.502865	82.683227	-461.059327	-15.127479	81.451453	-62.698317	
1502	7.5100	792.842979	1310.107907	-42.696695	763.178280	1319.799193	-368.904806	764.085223	1404.614459	-200.073014	697.726165	1228.346035	-202.841680	600.891851	1112.947240	76.421883	762.567611	949.342693	-40.094780	596.569014	1170.354281	-590.608452	769.647534	954.474598	-468.764439	140.507092	1331.214989	-213.708507	353.306048	1297.181963	-416.866799	350.817129	1263.536839	-16.732578	359.822209	1212.387567	-389.292827	353.900838	1197.416234	-63.721643	205.200546	1390.906905	-156.851172	197.642667	1390.749110	-256.644705	278.662743	1147.570069	-10.350711	233.870648	1188.508919	-431.288468	360.321764	1028.869025	-14.351140	426.504352	973.433386	-36.633469	454.397949	891.733442	-52.828830	453.211167	994.562902	-50.840636	502.578308	798.274833	-75.892238	486.236858	785.794283	-205.331936	382.875193	687.516730	-61.446965	332.279368	617.874900	-79.364953	253.449519	579.652662	-78.859204	349.444671	602.164369	-111.733714	142.140040	511.523843	-88.316524	102.227627	561.322384	-137.275091	195.674826	289.223425	-141.870905	140.043581	338.399658	-72.505364	322.933220	1056.666841	-443.933393	384.208850	997.352415	-436.450228	416.785023	1015.201801	-428.519134	408.064417	910.752789	-430.948728	466.129033	780.129894	-404.900934	468.813403	765.637343	-279.587020	316.794814	376.839544	-402.795343	251.150443	349.332792	-372.291134	440.763267	260.928195	-438.242054	418.660057	662.910068	-428.216612	416.967158	577.678767	-416.925901	373.729963	500.743796	-417.184489	446.771571	571.705806	-393.832794	537.829503	263.207904	-368.147973	-203.935007	960.026180	-262.670451	1.502722	82.634408	-461.087683	-15.154751	81.450291	-62.694307	
1503	7.5150	791.540264	1309.899509	-40.944426	763.443829	1319.371706	-366.884794	763.309153	1404.558983	-198.494884	697.125659	1228.266498	-201.044697	599.703627	1112.026811	77.495653	762.353691	949.156703	-40.010921	598.224808	1170.398353	-589.654053	769.624964	953.910482	-467.966745	139.890512	1330.316297	-215.415685	353.409775	1294.911384	-417.537389	349.807434	1264.007872	-18.108552	360.554722	1210.755123	-389.991077	353.249698	1198.487742	-65.200740	204.603758	1390.278042	-158.825211	197.177401	1389.431717	-258.622127	278.989939	1148.570821	-11.196326	232.594637	1184.886724	-432.223404	362.345372	1031.337205	-15.689000	429.762831	977.112749	-37.113206	459.655289	896.216557	-52.566879	456.132526	998.834691	-51.603810	509.528334	803.342825	-75.972616	494.915337	790.871409	-205.517699	388.698451	693.997364	-61.728351	337.029299	624.838644	-79.748967	257.717599	587.794744	-79.264450	354.164223	609.040181	-111.907154	145.722840	521.422068	-88.762398	104.943969	571.175227	-137.484692	200.155541	299.643379	-142.044478	144.589804	348.610831	-72.394379	319.164828	1051.186819	-445.268401	378.380361	989.891928	-437.450987	410.626367	1006.967025	-429.734475	399.592028	902.640965	-431.306995	454.373579	772.006300	-405.423101	456.030946	758.659792	-279.858046	312.236372	366.140787	-402.671276	246.996017	339.687159	-372.469010	436.412436	250.786212	-438.410192	407.807519	655.707681	-429.046433	407.799828	570.556094	-417.827801	366.189125	492.656134	-417.586499	438.069012	565.157712	-395.793797	533.487530	253.017743	-368.229423	-203.965661	960.003677	-262.613314	1.507378	82.631705	-461.086507	-15.143989	81.407364	-62.688151	
1504	7.5200	790.176990	1309.746358	-39.226966	763.641905	1319.173372	-364.864394	762.512057	1404.313695	-196.622543	696.533251	1227.992881	-199.403289	598.636850	1110.935298	78.642486	762.068712	948.930681	-40.125413	599.817982	1170.517709	-588.772109	769.597912	953.323827	-467.191586	139.315212	1329.250486	-217.131932	353.455786	1292.928303	-418.310636	348.813899	1264.370824	-19.303305	361.287325	1209.589521	-390.659491	352.647498	1199.238153	-66.794336	203.984791	1389.342955	-160.889884	196.045462	1387.598915	-256.149170	279.237268	1149.555578	-12.107312	231.195059	1181.244888	-433.385160	364.435983	1033.652642	-17.188860	433.356974	980.867626	-38.361902	464.914531	900.476316	-52.916550	458.913023	1003.165606	-52.100163	516.322851	808.353438	-76.368470	501.917036	795.780775	-205.697712	394.327855	700.478920	-61.993886	341.831690	632.002867	-80.147722	262.217142	595.847262	-79.770651	359.044680	615.658085	-112.095671	149.597485	531.105690	-89.347639	108.152391	580.885284	-137.940805	205.399277	309.977866	-142.113171	149.745805	358.686098	-72.334418	314.789596	1045.752889	-446.520878	372.085902	982.552764	-438.474190	404.648561	998.650703	-430.522191	390.398003	894.800077	-431.390890	442.652406	764.899666	-405.824875	443.296249	752.739558	-279.746808	307.086672	356.326152	-402.802566	242.335995	330.702829	-372.781559	431.510711	241.084238	-438.544770	397.215842	648.569918	-429.853860	398.725334	563.436910	-418.537271	358.442509	484.785647	-417.877343	429.310018	558.393220	-396.601478	528.601287	243.087127	-368.343267	-204.005307	959.957059	-262.501321	1.493473	82.623840	-461.070124	-15.148651	81.365975	-62.667311	
